arm26_states
version=1
nRows=20
nColumns=17
inDegrees=yes

# SIMM Motion File Header:
name arm26_states
datacolumns 17
datarows 20
otherdata 1
range 0.29370119 0.33430002
endheader
time	/jointset/r_shoulder/r_shoulder_elev/value	/jointset/r_shoulder/r_shoulder_elev/speed	/jointset/r_elbow/r_elbow_flex/value	/jointset/r_elbow/r_elbow_flex/speed	/forceset/TRIlong/activation	/forceset/TRIlong/fiber_length	/forceset/TRIlat/activation	/forceset/TRIlat/fiber_length	/forceset/TRImed/activation	/forceset/TRImed/fiber_length	/forceset/BIClong/activation	/forceset/BIClong/fiber_length	/forceset/BICshort/activation	/forceset/BICshort/fiber_length	/forceset/BRA/activation	/forceset/BRA/fiber_length
      0.29370119	     -4.96708833	     -9.63843287	     34.89058441	    160.21267019	     -0.01215109	      0.14727146	      0.01111612	      0.08433726	      0.01101455	      0.07933428	      0.10835631	      0.13877853	      0.02274656	      0.13754404	     -0.01087554	      0.08531312
      0.29617672	     -4.99018627	     -9.01529868	     35.28498087	    158.39606130	     -0.01246923	      0.14741339	      0.01156099	      0.08448497	      0.01149815	      0.07948492	      0.10851652	      0.13859588	      0.02272858	      0.13735709	     -0.01117208	      0.08522452
      0.29759154	     -5.00268113	     -8.64596255	     35.50831480	    157.30384153	     -0.01265106	      0.14749400	      0.01176132	      0.08457009	      0.01171354	      0.07956672	      0.10860392	      0.13849149	      0.02271773	      0.13725039	     -0.01134154	      0.08517439
      0.29900636	     -5.01464653	     -8.26715838	     35.73007522	    156.17264586	     -0.01283288	      0.14757430	      0.01193401	      0.08465539	      0.01189768	      0.07965235	      0.10868901	      0.13838714	      0.02270646	      0.13714386	     -0.01151097	      0.08512464
      0.30166227	     -5.03564059	     -7.53906873	     36.14195009	    153.96938980	     -0.01317421	      0.14772415	      0.01220495	      0.08481527	      0.01218321	      0.07981129	      0.10884256	      0.13819142	      0.02268414	      0.13694440	     -0.01182903	      0.08503229
      0.30358327	     -5.04960781	     -7.00094997	     36.43614616	    152.31787456	     -0.01342109	      0.14783152	      0.01237034	      0.08493011	      0.01235533	      0.07992765	      0.10894685	      0.13805010	      0.02266692	      0.13680067	     -0.01205912	      0.08496640
      0.30550426	     -5.06253477	     -6.45702415	     36.72713099	    150.62904067	     -0.01366797	      0.14793839	      0.01251885	      0.08504420	      0.01250850	      0.08003969	      0.10904684	      0.13790905	      0.02264881	      0.13665747	     -0.01228927	      0.08490126
      0.30742526	     -5.07441101	     -5.90645047	     37.01483502	    148.90045867	     -0.01391485	      0.14804439	      0.01265573	      0.08515716	      0.01264859	      0.08015460	      0.10914362	      0.13776833	      0.02262983	      0.13651487	     -0.01251946	      0.08483691
      0.30934625	     -5.08522597	     -5.35302516	     37.29918845	    147.14339711	     -0.01416173	      0.14814971	      0.01278456	      0.08526898	      0.01277963	      0.08026432	      0.10923770	      0.13762800	      0.02260999	      0.13637292	     -0.01274970	      0.08477335
      0.31126725	     -5.09497399	     -4.79516407	     37.58013601	    145.35314074	     -0.01440861	      0.14825421	      0.01290762	      0.08537951	      0.01290421	      0.08037631	      0.10932782	      0.13748812	      0.02258923	      0.13623169	     -0.01297997	      0.08471060
      0.31318824	     -5.10364847	     -4.23589258	     37.85761970	    143.53873317	     -0.01465549	      0.14835795	      0.01302669	      0.08548871	      0.01302433	      0.08048421	      0.10941481	      0.13734874	      0.02256757	      0.13609122	     -0.01321027	      0.08464866
      0.31557524	     -5.11292716	     -3.53765986	     38.19751920	    141.24657857	     -0.01496226	      0.14848572	      0.01317090	      0.08562245	      0.01316941	      0.08061933	      0.10951971	      0.13717632	      0.02253944	      0.13591783	     -0.01349646	      0.08457285
      0.31796223	     -5.12053773	     -2.83982308	     38.53190639	    138.92494667	     -0.01526904	      0.14861220	      0.01331234	      0.08575396	      0.01331141	      0.08074795	      0.10962189	      0.13700484	      0.02250998	      0.13574581	     -0.01378269	      0.08449832
      0.31989524	     -5.12547919	     -2.27269629	     38.79860805	    137.01638003	     -0.01551746	      0.14871368	      0.01342532	      0.08585879	      0.01342467	      0.08085509	      0.10970234	      0.13686673	      0.02248505	      0.13560757	     -0.01401454	      0.08443893
      0.32182824	     -5.12932572	     -1.70731563	     39.06160505	    135.09304174	     -0.01576589	      0.14881431	      0.01353734	      0.08596211	      0.01353689	      0.08095730	      0.10978122	      0.13672934	      0.02245918	      0.13547033	     -0.01424643	      0.08438038
      0.32443261	     -5.13278115	     -0.94638542	     39.41003310	    132.47258238	     -0.01610061	      0.14894853	      0.01368726	      0.08609890	      0.01368699	      0.08109461	      0.10988570	      0.13654545	      0.02242288	      0.13528708	     -0.01455893	      0.08430288
      0.32715702	     -5.13427926	     -0.15453441	     39.76717645	    129.70531383	     -0.01645075	      0.14908708	      0.01384367	      0.08623895	      0.01384351	      0.08123320	      0.10999331	      0.13635470	      0.02238316	      0.13509755	     -0.01488591	      0.08422349
      0.32988142	     -5.13362566	      0.63430559	     40.11674409	    126.90772236	     -0.01680089	      0.14922424	      0.01400042	      0.08637588	      0.01400032	      0.08137240	      0.11009950	      0.13616569	      0.02234165	      0.13491032	     -0.01521291	      0.08414584
      0.33209072	     -5.13152345	      1.26794007	     40.39460601	    124.62907434	     -0.01708483	      0.14933343	      0.01412770	      0.08648459	      0.01412764	      0.08147902	      0.11018489	      0.13601377	      0.02230672	      0.13476027	     -0.01547810	      0.08408416
      0.33430002	     -5.12802506	      1.89825933	     40.66741659	    122.33463071	     -0.01736878	      0.14944223	      0.01425511	      0.08659124	      0.01425507	      0.08158605	      0.11026989	      0.13586314	      0.02227067	      0.13461187	     -0.01574330	      0.08402362
